<?xml version="1.0" encoding="utf-8"?>
<!-- Generator: Adobe Illustrator 28.1.0, SVG Export Plug-In . SVG Version: 6.00 Build 0)  -->
<svg version="1.1" id="图层_1" xmlns="http://www.w3.org/2000/svg" xmlns:xlink="http://www.w3.org/1999/xlink" x="0px" y="0px"
	 viewBox="0 0 1024 1024" style="enable-background:new 0 0 1024 1024;" xml:space="preserve">
<style type="text/css">
	.st0{fill:#C9A063;stroke:#000000;stroke-miterlimit:10;}
</style>
<path class="st0" d="M184.14,479.9c-1.61,13.18-2.45,26.6-2.45,40.21c0,181.69,147.29,328.97,328.97,328.97
	s328.97-147.29,328.97-328.97c0-13.61-0.84-27.03-2.45-40.21H184.14z"/>
<g>
	<path d="M858.96,462.03v-0.26h-0.03c-0.01-0.05-0.01-0.09-0.01-0.14h-45.33c0.01,0.05,0.01,0.09,0.02,0.14H210.37
		c0.01-0.05,0.01-0.09,0.02-0.14h-45.33c-1.5,13.21-2.28,26.56-2.28,40.03c0,47.13,9.24,92.87,27.45,135.94
		c17.59,41.59,42.77,78.93,74.83,111c32.06,32.06,69.41,57.24,110.99,74.83c43.07,18.22,88.8,27.45,135.94,27.45
		s92.87-9.24,135.94-27.45c41.59-17.59,78.93-42.77,111-74.83c32.06-32.06,57.24-69.41,74.83-111
		c18.22-43.07,27.45-88.8,27.45-135.94C861.21,488.33,860.45,475.11,858.96,462.03z M727.1,716.77
		c-57.46,57.46-133.85,89.1-215.11,89.1s-157.65-31.64-215.11-89.1c-56.25-56.25-87.74-130.65-89.04-210h608.3
		C814.84,586.12,783.35,660.52,727.1,716.77z"/>
	<path d="M603.77,429.96h167.46l60.07-128.62c10.18-21.8,11.27-46.27,3.05-68.89c-8.22-22.62-24.75-40.68-46.55-50.87
		c-45.01-21.02-98.73-1.5-119.75,43.51l-82.4,176.41C579.46,414.76,589.14,429.96,603.77,429.96z M638.57,385.56l70.24-141.43
		c7.65-16.38,23.94-26.01,40.93-26.01c8.34,0,16.86,2.33,24.59,7.32c6.71,4.34,12.16,10.45,15.7,17.62
		c6.2,12.57,6.32,26.77,0.5,39.23L736.71,400h-89.19C640.09,400,635.27,392.2,638.57,385.56z"/>
</g>
</svg>
