<?xml version="1.0" encoding="utf-8"?>
<!-- Generator: Adobe Illustrator 28.1.0, SVG Export Plug-In . SVG Version: 6.00 Build 0)  -->
<svg version="1.1" id="图层_1" xmlns="http://www.w3.org/2000/svg" xmlns:xlink="http://www.w3.org/1999/xlink" x="0px" y="0px"
	 viewBox="0 0 1024 1024" style="enable-background:new 0 0 1024 1024;" xml:space="preserve">
<style type="text/css">
	.st0{fill:#C9A063;}
</style>
<path class="st0" d="M815.53,494.64L536.21,252.58c-5.73-7.01-14.65-11.47-24.21-11.47s-18.47,4.46-24.21,11.47L208.47,494.64
	c-8.92,5.73-14.97,15.61-14.97,27.07c0,16.56,12.42,29.94,28.67,31.53v0.32h50.96v197.47c0,17.52,14.33,31.85,31.85,31.85h127.4
	c17.52,0,31.85-14.33,31.85-31.85V620.45c0-17.52,14.33-31.85,31.85-31.85h31.85c17.52,0,31.85,14.33,31.85,31.85v130.59
	c0,17.52,14.33,31.85,31.85,31.85h127.4c17.52,0,31.85-14.33,31.85-31.85V553.56h47.78c17.52,0,31.85-14.33,31.85-31.85
	C830.5,510.25,824.45,500.37,815.53,494.64z"/>
</svg>
