<?xml version="1.0" encoding="utf-8"?>
<!-- Generator: Adobe Illustrator 28.1.0, SVG Export Plug-In . SVG Version: 6.00 Build 0)  -->
<svg version="1.1" id="图层_1" xmlns="http://www.w3.org/2000/svg" xmlns:xlink="http://www.w3.org/1999/xlink" x="0px" y="0px"
	 viewBox="0 0 1024 1024" style="enable-background:new 0 0 1024 1024;" xml:space="preserve">
<g>
	<ellipse cx="450.64" cy="393.08" rx="24.96" ry="30.39"/>
	<ellipse cx="579.02" cy="393.7" rx="25.18" ry="30.66"/>
	<rect x="471.23" y="498.2" width="87.16" height="24.9"/>
	<path d="M721.16,626.5c-26.32-11.53-56.59-20.64-89.41-27.06c14.32-8.92,27.73-19.54,39.96-31.77
		c41.97-41.98,65.09-97.78,65.09-157.15s-23.12-115.17-65.09-157.15c-41.98-41.98-97.78-65.09-157.15-65.09
		c-40.14,0-78.66,10.59-112.37,30.41c-6.97-17.91-15.96-33.96-26.25-46.59c-17.97-22.08-38.65-32.27-58.21-28.68
		c-16.77,3.08-35.71,13.4-50.67,27.61c-13.01,12.37-29.25,33.48-32.76,63.85c-1.26,10.92,0.71,27.57,17.23,44.91
		c8.39,8.81,20.03,17.25,34.6,25.1c9.31,5.01,18.66,9.17,26.59,12.37c-13.35,28.86-20.4,60.52-20.4,93.26
		c0,59.36,23.12,115.17,65.09,157.15c11.89,11.89,24.88,22.26,38.75,31.02c-34.33,6.46-65.98,15.82-93.34,27.81
		c-62.14,27.23-96.37,65.68-96.37,108.29s34.22,81.06,96.37,108.29c56.24,24.64,130.52,38.21,209.16,38.21
		c78.64,0,152.92-13.57,209.16-38.21c62.14-27.23,96.37-65.69,96.37-108.29S783.31,653.72,721.16,626.5z M307.49,265.27
		c-24.12-12.99-28.75-22.82-28.47-25.24c3.57-30.98,32.32-49.49,46.51-52.29c1.7,0.29,8.65,3.46,17.72,15.58
		c7.99,10.68,14.95,24.67,20.08,40.19l-29.78,33.58C326.24,274.29,316.79,270.28,307.49,265.27z M337.33,410.52
		c0-97.73,79.51-177.24,177.24-177.24c97.73,0,177.24,79.51,177.24,177.24S612.3,587.76,514.57,587.76
		C416.84,587.76,337.33,508.25,337.33,410.52z M588.77,638.05l-70.39,70.39l-71.73-71.73c21.1-2.25,43-3.42,65.35-3.42
		C538.42,633.29,564.2,634.91,588.77,638.05z M320.89,801.86c-43.47-19.05-69.43-44.12-69.43-67.07s25.95-48.03,69.43-67.07
		c20.97-9.19,44.88-16.66,70.85-22.27l94.81,94.81L400.82,826C371.34,820.22,344.28,812.1,320.89,801.86z M703.1,801.86
		c-50.67,22.2-118.54,34.43-191.1,34.43c-18.85,0-37.39-0.83-55.39-2.44l186.03-186.03c21.97,5.29,42.33,11.95,60.47,19.9
		c43.47,19.05,69.43,44.12,69.43,67.07S746.58,782.81,703.1,801.86z"/>
</g>
</svg>
