<?xml version="1.0" encoding="utf-8"?>
<!-- Generator: Adobe Illustrator 28.1.0, SVG Export Plug-In . SVG Version: 6.00 Build 0)  -->
<svg version="1.1" id="图层_1" xmlns="http://www.w3.org/2000/svg" xmlns:xlink="http://www.w3.org/1999/xlink" x="0px" y="0px"
	 viewBox="0 0 1024 1024" style="enable-background:new 0 0 1024 1024;" xml:space="preserve">
<style type="text/css">
	.st0{fill:#B7B7B7;}
</style>
<g>
	<path class="st0" d="M442.45,597.67l72.75,101.94l69.76-101.55c-23.42-2.67-47.84-4.1-72.96-4.1
		C488.1,593.96,464.82,595.24,442.45,597.67z"/>
	<path class="st0" d="M391.19,605.53c-113.57,22.74-193.41,76.58-193.41,139.37c0,62.33,78.67,115.84,190.91,138.87l98.62-143.56
		L391.19,605.53z"/>
	<path class="st0" d="M635.59,606.08L439.34,891.76c23.32,2.65,47.65,4.06,72.66,4.06c173.54,0,314.22-67.58,314.22-150.93
		C826.22,682.61,747.69,629.14,635.59,606.08z"/>
	<path class="st0" d="M514.9,202.62c16.37,0,32.27,2.04,47.47,5.86c7.22-21.14,13.25-46.08,7.59-59.42
		c-11.04-26.02-94.15-29.57-114.41-0.11c-10.44,15.17-3.23,40.26,6.21,61.04C478.67,205.19,496.49,202.62,514.9,202.62z"/>
	<path class="st0" d="M515.38,593.95c93.35,0,170.58-70.3,181.54-160.75c-70.72,8.78-138.77-21.01-181.08-74.08
		c-0.01,0.01-0.02,0.03-0.03,0.04c-0.01-0.01-0.02-0.03-0.03-0.04c-42.48,53.29-110.93,83.13-181.96,73.98
		C344.75,523.58,422,593.95,515.38,593.95z"/>
	<path class="st0" d="M488.01,318.58h55.63c32.31,49.49,91.71,77.73,152.98,67.93c-12.03-89.27-88.71-158.33-181.23-158.33
		c-92.47,0-169.11,68.98-181.21,158.18C395.76,396.57,455.55,368.3,488.01,318.58z"/>
</g>
</svg>
