<?xml version="1.0" encoding="utf-8"?>
<!-- Generator: Adobe Illustrator 28.1.0, SVG Export Plug-In . SVG Version: 6.00 Build 0)  -->
<svg version="1.1" id="图层_1" xmlns="http://www.w3.org/2000/svg" xmlns:xlink="http://www.w3.org/1999/xlink" x="0px" y="0px"
	 viewBox="0 0 1024 1024" style="enable-background:new 0 0 1024 1024;" xml:space="preserve">
<style type="text/css">
	.st0{fill:#C9A063;}
</style>
<polygon class="st0" points="225.04,215.05 162.25,457.88 184.04,491.12 211.78,501.78 273.89,501.78 296.04,468 326.56,491.54 
	355.87,506.92 395.38,499.32 424.94,482.4 437.47,463.76 459.69,493.07 508.24,511.59 545.53,499.87 573.03,479.01 585.74,464.61 
	614.53,495.03 661.33,507.52 701.05,494.35 729.38,473.08 745.22,490.87 819.77,505.44 857.41,479.85 866.86,453.6 797.1,215.05 "/>
<path d="M887.32,448.49c0-0.18-0.01-0.35-0.01-0.53h-0.7l-68.64-256.17v-0.01H210.49v0.07l-0.24-0.07L141.6,447.96h-0.04
	c0,0.06,0,0.11,0,0.17l-0.05,0.19l0.05,0.01c0.05,34.43,20.42,64.17,49.72,77.88v261.5c0,24.85,20.15,45,45,45h551.43
	c24.85,0,45-20.15,45-45V528.59C864.65,515.99,887.32,484.85,887.32,448.49z M614.53,787.71H410.04v-82.46
	c0-12.43,10.07-22.5,22.5-22.5h159.49c12.43,0,22.5,10.07,22.5,22.5V787.71z M765.21,787.71H659.53V682.76c0-24.85-20.15-45-45-45
	H410.04c-24.85,0-45,20.15-45,45v104.96H258.79c-12.43,0-22.5-10.07-22.5-22.5V533.86c26.08-2.61,48.78-16.91,62.74-37.57
	c15.49,22.91,41.7,38.01,71.38,38.01c29.99,0,56.44-15.43,71.85-38.75c15.44,23.19,41.81,38.5,71.69,38.5
	c29.98,0,56.42-15.42,71.84-38.73c15.37,23.61,41.97,39.26,72.18,39.26c29.84,0,56.18-15.27,71.63-38.4
	c13.07,19.57,33.93,33.51,58.11,37.34v231.7C787.71,777.64,777.64,787.71,765.21,787.71z M813.15,487.8h-23.86
	c-16.85-5.13-29.15-20.81-29.15-39.32c0-0.18,0.01-0.35,0.01-0.53h-61.11c0,0.18,0.01,0.35,0.01,0.53
	c0,22.66-18.43,41.09-41.09,41.09c-22.66,0-41.09-18.43-41.09-41.09c0-0.18,0.01-0.35,0.01-0.53h-61.85
	c0,22.66-18.43,41.09-41.09,41.09c-22.66,0-41.09-18.43-41.09-41.09h-61.38c0,0.08,0.01,0.17,0.01,0.25
	c0,22.66-18.43,41.09-41.09,41.09s-41.09-18.43-41.09-41.09c0-0.08,0.01-0.17,0.01-0.25h-60.59c0,0.08,0.01,0.17,0.01,0.25
	c0,19.69-13.93,36.19-32.45,40.17v-0.57h-19.6c-15.86-4.4-27.89-18.09-29.84-34.82l57.93-216.2h538.65l58.41,217.98
	C839.42,470.48,828.07,483.27,813.15,487.8z"/>
</svg>
