<?xml version="1.0" encoding="utf-8"?>
<!-- Generator: Adobe Illustrator 28.1.0, SVG Export Plug-In . SVG Version: 6.00 Build 0)  -->
<svg version="1.1" id="图层_1" xmlns="http://www.w3.org/2000/svg" xmlns:xlink="http://www.w3.org/1999/xlink" x="0px" y="0px"
	 viewBox="0 0 1024 1024" style="enable-background:new 0 0 1024 1024;" xml:space="preserve">
<style type="text/css">
	.st0{fill:#C9A063;}
</style>
<path class="st0" d="M598.62,605.37l3.5,3.12c29.88,26.16,68.24,40.61,107.95,40.66c30.6,0,59.22-8.41,83.83-23.09v92.45
	c0,45.79-35.48,83.02-79.14,83.02H542.48v-70.1c0-3.37-2.73-6.1-6.1-6.1h-33.53c-2.9,0-5.39,2.04-5.97,4.88l-0.12,1.22v70.1h-187.5
	c-43.67,0-79.18-37.27-79.18-83.02l-0.02-92.47c25.34,15.15,54.31,23.13,83.83,23.1l4.86-0.08c38.04-1.18,74.49-15.53,103.12-40.6
	l3.46-3.09l2.39,1.69c24.78,17.05,54.16,26.18,84.24,26.18l4.83-0.08c28.42-0.93,55.97-9.99,79.39-26.1l2.41-1.71L598.62,605.37z
	 M735.23,222.46c28.56,0,53.26,20.51,59.84,49.19l0.64,3.11l28.1,156.23l8.2,45.46c0,70.14-54.59,126.99-121.91,126.99
	c-46.83,0-87.47-27.58-107.89-67.93c-18.9,31.24-52.18,52.04-90.23,52.04s-71.35-20.82-90.24-52.04
	c-20.39,40.37-61.02,67.93-107.85,67.93c-66.14,0-119.9-54.8-121.87-123.12l-0.05-3.87l36.3-201.73
	c5.27-29.24,29.14-50.73,57.48-52.18l3.05-0.08h446.44H735.23z"/>
</svg>
